<svg xmlns="http://www.w3.org/2000/svg" viewBox="0 0 24 24" fill="currentColor">
  <g clip-path="url(#clip0_162_299)">
    <path fill-rule="evenodd" clip-rule="evenodd" d="M4.49738 4.27201C5.24001 4.87537 5.5186 4.82933 6.91316 4.73628L20.0601 3.94687C20.3389 3.94687 20.1071 3.6687 20.0141 3.62248L17.8307 2.04403C17.4123 1.71921 16.8549 1.34724 15.7866 1.44029L3.05642 2.36879C2.59215 2.41482 2.49942 2.64696 2.6843 2.83302L4.49738 4.27201ZM5.2867 7.33591V21.1688C5.2867 21.9122 5.65821 22.1903 6.49436 22.1444L20.9429 21.3083C21.7794 21.2623 21.8726 20.751 21.8726 20.147V6.40699C21.8726 5.80405 21.6407 5.47891 21.1286 5.52532L6.02976 6.40699C5.47252 6.45382 5.2867 6.73255 5.2867 7.33591ZM19.5502 8.07793C19.6429 8.49612 19.5502 8.91394 19.1312 8.96096L18.4351 9.09967V19.312C17.8307 19.6368 17.2733 19.8226 16.8088 19.8226C16.0652 19.8226 15.879 19.5903 15.322 18.8944L10.7683 11.7457V18.6623L12.2093 18.9874C12.2093 18.9874 12.2093 19.8226 11.0467 19.8226L7.8418 20.0085C7.7487 19.8226 7.8418 19.3588 8.16689 19.2659L9.00323 19.034V9.88903L7.84204 9.79598C7.74889 9.37779 7.98084 8.77481 8.63173 8.72802L12.0699 8.49626L16.8088 15.738V9.33176L15.6006 9.19309C15.5078 8.68185 15.879 8.31063 16.3436 8.26459L19.5502 8.07793ZM1.98757 1.11553L15.229 0.140385C16.8551 0.000924609 17.2735 0.0943522 18.2955 0.836747L22.5223 3.8076C23.2198 4.31846 23.4522 4.45755 23.4522 5.01445V21.3083C23.4522 22.3295 23.0802 22.9334 21.7797 23.0258L6.40234 23.9544C5.42602 24.0009 4.96137 23.8618 4.45008 23.2115L1.33738 19.1729C0.779678 18.4295 0.547729 17.8734 0.547729 17.2227V2.73964C0.547729 1.90457 0.919843 1.20797 1.98757 1.11553Z" fill="currentFill"/>
  </g>
  <defs>
    <clipPath id="clip0_162_299">
      <rect width="24" height="24" fill="currentColor"/>
    </clipPath>
  </defs>
</svg>