<svg xmlns="http://www.w3.org/2000/svg" width="147" height="48" viewBox="0 0 147 48" fill="none">
  <path d="M28.872 23.104V25.732C28.872 33.148 24.12 37.936 16.092 37.936C7.992 37.936 2.26801 32.176 2.26801 24.004C2.26801 15.832 7.992 10.108 16.092 10.108C24.732 10.108 27.864 16.66 27.864 16.66L23.292 19.216C23.292 19.216 21.204 14.86 16.056 14.86C10.944 14.86 7.74001 18.388 7.74001 24.004C7.74001 29.656 10.944 33.184 16.056 33.184C19.728 33.184 23.292 31.708 23.4 27.424H16.416V23.104H28.872ZM38.9188 37.72C33.8068 37.72 30.2068 34.048 30.2068 28.792C30.2068 23.5 33.8068 19.792 38.9188 19.792C44.6068 19.792 46.4428 24.472 46.5148 24.616C47.5948 26.74 47.3068 29.98 47.3068 30.628H35.3188C35.7868 32.248 37.4428 33.22 38.9548 33.22C40.8628 33.22 41.8348 32.428 42.1948 31.708L46.6948 33.4C45.8668 35.452 43.3468 37.72 38.9188 37.72ZM35.3548 26.704H42.3028C41.8708 25.48 40.7548 24.256 38.9188 24.256C37.1188 24.256 35.7868 25.372 35.3548 26.704ZM58.2227 33.22C60.3107 33.22 61.5347 31.6 61.5347 28.756C61.5347 25.912 60.3107 24.256 58.2227 24.256C56.1707 24.256 54.9107 25.912 54.9107 28.756C54.9107 31.6 56.1347 33.22 58.2227 33.22ZM49.4387 28.756C49.4387 23.464 53.0747 19.756 58.2227 19.756C63.3707 19.756 67.0067 23.464 67.0067 28.756C67.0067 34.012 63.3707 37.72 58.2227 37.72C53.0747 37.72 49.4387 34.012 49.4387 28.756ZM81.1693 28.648C81.1693 25.84 80.1253 24.436 77.7133 24.436C76.0213 24.472 74.4373 25.876 74.5453 28.648V37.72H69.0733V19.828H74.5453V21.952C75.5893 20.728 77.2453 19.936 78.8653 19.936C81.2413 19.936 86.6413 21.232 86.6413 28.648V37.72H81.1693V28.648ZM101.527 28.18C101.527 25.48 100.483 23.968 98.791 23.968C96.595 23.968 95.227 25.732 95.227 28.18V37H89.755V11.368H95.227V20.728C96.559 19.648 98.143 19.432 98.827 19.432C103.615 19.432 106.999 22.744 106.999 27.424V37H101.527V28.18ZM116.97 44.848H110.994L115.134 35.38L107.97 19.828H114.018L117.978 29.44L121.866 19.828H127.842L121.182 35.2L116.97 44.848ZM136.451 33.22C138.539 33.22 139.763 31.6 139.763 28.756C139.763 25.912 138.539 24.256 136.451 24.256C134.399 24.256 133.139 25.912 133.139 28.756C133.139 31.6 134.363 33.22 136.451 33.22ZM127.667 28.756C127.667 23.464 131.303 19.756 136.451 19.756C141.599 19.756 145.235 23.464 145.235 28.756C145.235 34.012 141.599 37.72 136.451 37.72C131.303 37.72 127.667 34.012 127.667 28.756Z" fill="#1D74F8"/>
</svg>